<?xml version="1.0" encoding="UTF-8"?>
<svg width="23px" height="22px" viewBox="0 0 23 22" version="1.1" xmlns="http://www.w3.org/2000/svg" xmlns:xlink="http://www.w3.org/1999/xlink">
    <title>Email Light Grey</title>
    <g id="Icons" stroke="none" stroke-width="1" fill="none" fill-rule="evenodd">
        <g id="Artboard" transform="translate(-232.000000, -586.000000)" fill="#8996A6" fill-rule="nonzero">
            <g id="Email-Light-Grey" transform="translate(232.000000, 586.000000)">
                <path d="M11.667099,16.4227123 C12.8269018,16.4227123 13.9105925,15.9590892 14.9181712,15.0318431 L14.9181712,15.3139984 C14.9181434,15.7558416 15.276328,16.1140262 15.7181712,16.1140262 C15.7206646,16.1140262 15.723158,16.1140146 15.7256513,16.1139913 C16.6781611,16.105085 17.2281118,16.1081348 17.3755034,16.1231405 C17.4839532,16.1341816 17.5006223,16.1551026 17.5324229,16.1652995 C17.5819882,16.1811927 17.6319609,16.1918461 17.8436872,16.2586353 C18.3819909,16.4284436 18.3819909,16.4227123 18.9809575,16.4863757 C19.5799241,16.5500392 20.0540144,16.4216619 20.3047859,16.3469934 C20.7694492,16.2086376 20.9441225,16.1231405 21.3476015,15.662408 C21.5976623,15.3768637 21.8359481,15.0566084 22.0192794,14.729443 C22.437676,13.9827899 22.6207764,13.3993329 22.6458548,13.3320586 C22.8228467,12.8572671 22.9879975,11.4327574 22.9993414,10.1394752 C23.0108992,8.82180301 22.8682104,8.17872813 22.7392309,7.65388105 C22.6493822,7.28826655 22.4478214,6.67772073 22.189051,6.24754803 C22.0037398,5.93949185 21.564439,5.33656137 21.2808064,4.95248594 C20.7552089,4.24075875 20.043636,3.34338077 19.5652345,2.90096354 C19.2463002,2.60601872 18.8053116,2.26234686 18.2422687,1.86994795 C17.6745622,1.508671 17.0555188,1.17500038 16.3851384,0.868936075 C15.44626,0.44028811 14.1088131,0.143331202 13.66096,0.113884044 C13.4867148,0.102427104 11.7493451,-0.136527574 9.92745722,0.113884044 C9.07237792,0.231411468 8.03387128,0.442221362 7.28363218,0.694933933 C6.60259807,0.924335305 6.18837367,1.19465914 5.81228654,1.3404533 C5.42008429,1.49249465 4.13019692,2.46261695 3.03783228,3.63290303 C1.92879319,4.821053 1.19415514,6.16973485 1.01950683,6.49842331 C0.835699532,6.84434899 0.793281723,6.97826161 0.719077295,7.14581783 C0.653328046,7.29428195 0.515294543,7.64870001 0.47844341,7.7730076 C0.43023532,7.93562489 0.354535041,8.1050253 0.321790272,8.303149 C0.301254778,8.42739994 0.214304795,8.73462152 0.200333003,8.83508779 C0.175519626,9.01351212 0.129468311,9.18548001 0.111555036,9.3718436 C0.103298389,9.45774294 0.0642866729,9.72554493 0.0642866729,9.75698946 C0.0642866729,9.77795248 0.0495861891,9.93413417 0.0201852214,10.2255345 C0.00672840712,10.3861769 0,10.5343049 0,10.6699183 C0,10.7774716 0,11.0901261 0,11.3050075 C0,11.5198889 0.0358138127,12.1313123 0.0366026483,12.1372159 C0.0527417163,12.2579986 0.0507065047,12.2681543 0.0642866729,12.3675519 C0.0847404704,12.5172599 0.114337449,12.7285192 0.140852191,12.8746934 C0.151542358,12.9336277 0.159487283,12.9758462 0.184676997,13.0854506 C0.193285253,13.1229064 0.212446392,13.2360872 0.221574778,13.2858033 C0.251987567,13.4514412 0.285220342,13.5607594 0.299632073,13.6268702 C0.331027388,13.7708898 0.360253787,13.8487332 0.41432482,14.0348565 C0.468395854,14.2209798 0.486722849,14.2771655 0.525010861,14.402669 C0.563298873,14.5281725 0.656234337,14.8621204 0.702690106,14.9584311 C0.749145875,15.0547418 0.749145875,15.0547418 0.770924421,15.1056028 C0.783670482,15.1353696 0.797604011,15.1719274 0.822959079,15.2324084 C0.832293257,15.2546738 0.848145543,15.2956299 0.870515937,15.3552767 C0.92903753,15.4752459 0.973386805,15.5679261 1.00356376,15.6333174 C1.0488292,15.7314043 1.12567606,15.9289766 1.30894097,16.2586353 C1.49220589,16.5882939 1.36722279,16.3535554 1.57727121,16.6792331 C1.68977876,16.8536749 1.73381463,16.9619709 1.82598992,17.0866962 C1.91816521,17.2114214 2.07555377,17.4929331 2.21940044,17.6560341 C2.36324711,17.8191351 2.70958125,18.2268678 2.83022454,18.3360491 C2.95086784,18.4452303 3.09767986,18.594106 3.19749674,18.6722493 C3.33484298,18.7797731 3.46868317,18.9020402 3.52669289,18.9541115 C3.6861158,19.0972142 3.6997559,19.1109268 3.8382463,19.2086316 C3.9767367,19.3063364 4.05907545,19.3991935 4.31636874,19.5878184 C4.57366203,19.7764433 4.75508922,19.9277368 4.94137273,20.0359153 C5.10818521,20.1327865 5.35850298,20.2856388 5.48016554,20.3688234 C5.64999471,20.4849411 5.7595913,20.5444999 5.84279293,20.5832991 C5.9304078,20.6241564 6.10009877,20.7328377 6.16868774,20.7694577 C6.3024108,20.8408531 6.61913455,20.9907688 6.73475177,21.0410939 C6.850369,21.091419 7.10890315,21.1963095 7.28363218,21.270993 C7.49099044,21.3596231 7.829228,21.48602 8.07452627,21.5663951 C8.31982455,21.6467702 8.97673376,21.7723282 9.37294893,21.8530084 C9.55636288,21.8903564 9.63466281,21.916917 9.83534745,21.9435183 C9.85968335,21.9467441 9.96684607,21.9605511 10.040492,21.9729492 C10.0886307,21.9810532 10.2505182,21.9958131 10.4307731,21.9958131 C10.6110279,21.9958131 10.6028482,21.9943045 10.6437484,21.9958131 C10.9768641,22.0080999 11.3493206,21.9891381 11.667099,21.9921067 C12.2597474,21.9976432 12.7793821,21.9622782 12.9482501,21.9435183 C13.8490918,21.8434415 14.3407346,21.847673 15.0889045,21.6575099 C15.8370743,21.4673469 16.1658735,21.2563048 16.5384226,20.9877408 C16.7168069,20.8591467 17.2406745,20.5492805 17.2620245,20.3096521 C17.3029567,19.8502374 16.5522066,19.4457526 16.2821258,19.3991935 C15.8194169,19.3194274 15.2060993,19.8592176 14.4974701,20.0359153 C13.7888408,20.212613 13.2681999,20.322713 12.582346,20.3688234 C11.8725057,20.4165464 11.2449688,20.3688234 10.6904785,20.3688234 C10.1359882,20.3688234 9.76219294,20.3200273 9.17585147,20.1887288 C8.95631117,20.1395675 8.71920365,20.0692409 8.48849118,19.9847209 C8.26905375,19.9043315 8.05540157,19.8111022 7.86815267,19.711032 C7.48403373,19.5057499 7.25828863,19.4288323 6.73475177,19.081495 C6.21121491,18.7341577 5.99248,18.531323 5.71967478,18.2963233 C4.87369584,17.5675807 4.90564779,17.534186 4.55124393,17.1903519 C4.36753482,17.0121217 4.22345906,16.8519853 4.17408805,16.7972622 C4.12471705,16.742539 4.00263957,16.6029916 3.85869744,16.3793844 C3.55983856,15.9151213 3.32123531,15.4249756 3.19749674,15.150348 C3.05033861,14.8237427 2.87856441,14.2485792 2.80303143,14.0191382 C2.72749845,13.7896971 2.68085477,13.5987159 2.65066814,13.4653872 C2.62048151,13.3320586 2.58647566,13.1715176 2.56268955,13.0317931 C2.55789951,13.0036554 2.54423908,12.9333512 2.52170827,12.8208804 C2.51104369,12.7589094 2.5019311,12.7025344 2.49437051,12.6517553 C2.49028668,12.6243271 2.48349857,12.5736094 2.47400616,12.4996021 L2.44547137,12.2181017 C2.42859197,11.9852866 2.41411493,11.789592 2.40204025,11.6310179 C2.38392824,11.3931567 2.38608768,11.0141453 2.38608768,10.9489149 C2.38608768,10.8836845 2.38778895,10.5999783 2.38923884,10.5633283 C2.39212294,10.4904248 2.39652167,10.3941026 2.40204025,10.3005578 C2.40950071,10.1740966 2.41941388,10.0527196 2.42344402,10.0009989 C2.43007681,9.91587696 2.43617046,9.85443758 2.44547137,9.77397409 C2.44766675,9.7549816 2.45307586,9.72006134 2.45880877,9.6795668 C2.46449663,9.63939046 2.47050321,9.59372709 2.47400616,9.55268801 C2.47519777,9.53872763 2.47783771,9.51490689 2.48163252,9.48441622 C2.48351701,9.46927458 2.48568631,9.45248806 2.48810448,9.43444739 C2.4904799,9.41672556 2.49309548,9.39779351 2.49591713,9.37802161 C2.49988445,9.35022174 2.50425918,9.32076156 2.50894661,9.29067052 C2.51074856,9.27910288 2.51259673,9.26744201 2.51448572,9.25574641 C2.51666372,9.24226146 2.518896,9.22873033 2.52117432,9.21524266 C2.52292878,9.2048562 2.52471055,9.1944955 2.52651585,9.18420152 C2.52760644,9.17798285 2.52970957,9.16642161 2.53189352,9.15452732 C2.53490355,9.13813401 2.53806714,9.12110804 2.53894501,9.11656476 C2.54186212,9.10146773 2.54481516,9.0867471 2.54779032,9.07255296 C2.54904483,9.06656783 2.5513287,9.05665112 2.5541246,9.04487503 C2.55674014,9.03385861 2.55980378,9.02121497 2.56289199,9.00864063 C2.56460944,9.00164765 2.57686093,8.95286102 2.57886344,8.94564198 C2.58288206,8.9311549 2.58687489,8.91730424 2.59084316,8.90399214 C2.59408692,8.89311052 2.59731427,8.88258875 2.6005259,8.87237337 C2.60617033,8.85441988 2.61176617,8.83741278 2.61731712,8.82106189 C2.62485686,8.79885281 2.63231376,8.77785438 2.63969704,8.75733942 C2.65320054,8.71981905 2.66645776,8.68391589 2.67952511,8.64518129 C2.7007081,8.58239006 2.73087484,8.5011883 2.76220328,8.4229286 C2.7985564,8.33211703 2.83647374,8.24526694 2.86373361,8.19574091 C2.91448552,8.10353428 2.97424724,7.96993422 3.00483929,7.90968976 C3.02528947,7.86941752 3.22112115,7.51052959 3.27684063,7.40123248 C3.42625772,7.10814187 3.68008362,6.69266091 3.82127368,6.49842331 C3.97113945,6.29225039 3.97113945,6.26471436 4.05907545,6.12543153 C4.14701146,5.9861487 4.26104072,5.8511099 4.42111626,5.63381235 C4.58119181,5.4165148 4.83403407,5.14954508 4.94137273,5.03705628 C5.04323603,4.93030555 5.24898017,4.70807532 5.55860514,4.37036561 C5.8531794,4.06362863 6.13548145,3.80759379 6.40551129,3.60226111 C6.81055605,3.29426209 7.12300931,3.05403448 7.5179748,2.84623028 C7.79171009,2.70220923 8.02684423,2.5591819 8.35247811,2.43498079 C8.47580732,2.38794138 8.69949386,2.31554174 8.85579934,2.274872 C9.42480802,2.12681938 10.2046543,2.04022129 11.0156428,2.03715119 C11.8266312,2.0340811 12.6879574,2.0808486 13.0808603,2.13890913 C13.4737633,2.19696966 14.5547959,2.36226978 15.5295616,2.90096354 C16.5043274,3.4396573 16.3928469,3.45028444 16.886174,3.76082662 C17.2150587,3.96785473 17.5463592,4.22955662 17.8800755,4.54593227 C18.1943922,4.8487346 18.4849228,5.16645816 18.7516671,5.49910296 C19.1517835,5.99807015 19.2787068,6.26510523 19.5480114,6.75352301 C19.7452742,7.11128383 19.8237518,7.26185847 20.060555,7.7730076 C20.1468732,7.95932869 20.2221356,8.13727984 20.2876012,8.30773384 C20.4017325,8.60489952 20.4860875,8.87927863 20.547337,9.13549591 C20.6567114,9.59302816 20.6778348,10.2841562 20.6778348,10.6521945 C20.6778348,10.9939432 20.6924066,11.5543034 20.5644775,12.2828631 C20.4852787,12.7339029 20.4315329,13.1041405 20.3047859,13.4653872 C20.2267999,13.6876585 20.1074744,13.941892 20.0131873,14.0573936 C19.7837707,14.3384284 18.7366994,14.6458311 18.2422687,14.280987 C17.9126482,14.0377576 17.6237265,13.4648783 17.3755034,12.5623491 L17.3755034,6.50232071 C17.3755034,6.06049291 17.0173312,5.70232071 16.5755034,5.70232071 L15.7181712,5.70232071 C15.2763434,5.70232071 14.9181712,6.06049291 14.9181712,6.50232071 L14.9181712,6.91130699 L14.9181712,6.91130699 C13.9395876,5.91273425 12.8341505,5.41344789 11.6018601,5.41344789 C10.1738528,5.41344789 8.98505497,5.93413224 8.03546643,6.97550095 C7.08587788,8.01686966 6.61108361,9.31858055 6.61108361,10.8806336 C6.61108361,12.4712173 7.08587788,13.7978925 8.03546643,14.8606592 C8.99230374,15.9020279 10.2028479,16.4227123 11.667099,16.4227123 Z M12.0367861,14.2722146 C11.1886803,14.2722146 10.4855499,13.9548111 9.92739475,13.3200041 C9.38373719,12.6923299 9.11190841,11.8792063 9.11190841,10.8806336 C9.11190841,9.94625484 9.39098596,9.16166197 9.94914106,8.52685502 C10.5145449,7.89918073 11.2176754,7.58534358 12.0585324,7.58534358 C12.9501308,7.58534358 13.6750076,7.8956144 14.2331627,8.51615603 C14.7913178,9.15096298 15.0703953,9.95695383 15.0703953,10.9341286 C15.0703953,11.9113033 14.7913178,12.7172942 14.2331627,13.3521011 C13.6750076,13.9655101 12.942882,14.2722146 12.0367861,14.2722146 Z" id="a-copy"></path>
            </g>
        </g>
    </g>
</svg>