<?xml version="1.0" encoding="UTF-8"?>
<svg width="29px" height="29px" viewBox="0 0 29 29" version="1.1" xmlns="http://www.w3.org/2000/svg" xmlns:xlink="http://www.w3.org/1999/xlink">
    <title>Email Dark</title>
    <g id="Icons" stroke="none" stroke-width="1" fill="none" fill-rule="evenodd">
        <g id="Artboard" transform="translate(-243.000000, -548.000000)" fill="#44566C" fill-rule="nonzero">
            <g id="Email-Dark" transform="translate(242.999739, 548.396795)">
                <path d="M14.6701829,20.9860178 C16.1285163,20.9860178 17.4911465,20.3935699 18.7580736,19.208674 L18.7580736,19.5915649 C18.7580241,20.1438769 19.2057615,20.5916144 19.7580736,20.5916144 C19.7612505,20.5916144 19.7644274,20.5915992 19.7676042,20.5915689 C20.9688512,20.5801203 21.6622889,20.5839991 21.8479173,20.6032053 C21.9842819,20.6173143 22.0052415,20.6440485 22.0452275,20.6570788 C22.1075508,20.6773882 22.1703864,20.6910018 22.4366105,20.7763494 C23.1134724,20.9933416 23.1134724,20.9860178 23.8666116,21.0673711 C24.6197507,21.1487244 25.2158708,20.9846755 25.5311903,20.8892593 C26.1154568,20.7124592 26.3350906,20.6032053 26.8424242,20.0144511 C27.15685,19.6495639 27.4564701,19.2403208 27.6869904,18.8222474 C28.2130813,17.8681251 28.4433113,17.1225455 28.4748448,17.036578 C28.6973941,16.4298583 28.9050542,14.6095265 28.919318,12.9568858 C28.9338508,11.2730779 28.7544343,10.4513147 28.5922557,9.78063068 C28.4792803,9.31342451 28.2258381,8.53322907 27.9004608,7.9835262 C27.6674509,7.58987183 27.1150752,6.81940777 26.7584361,6.32861102 C26.0975511,5.41911939 25.202821,4.272391 24.6012802,3.70704128 C24.2002529,3.33014147 23.6457549,2.89097504 22.937786,2.38954201 C22.2239531,1.92787865 21.4455694,1.50149247 20.6026347,1.11038345 C19.4220912,0.562628994 17.7403887,0.183158001 17.1772592,0.145528493 C16.9581636,0.130888064 14.7735991,-0.174463879 12.4827615,0.145528493 C11.4075868,0.295712736 10.101771,0.565099431 9.15842207,0.888032111 C8.30209137,1.18117621 7.78124658,1.52661372 7.30835551,1.71291905 C6.81520131,1.90720745 5.19329994,3.14689328 3.8197632,4.64236152 C2.42526004,6.1606574 1.50152788,7.88409142 1.2819255,8.30411107 C1.05080664,8.74615758 0.997470583,8.9172799 0.904166109,9.13139421 C0.821493157,9.32111139 0.647930153,9.77401001 0.601593625,9.93285839 C0.540976884,10.1406614 0.445791531,10.3571324 0.404618336,10.6103078 C0.378797053,10.7690838 0.269466348,11.1616717 0.25189825,11.2900541 C0.220697968,11.5180563 0.162793152,11.7378082 0.140269041,11.9759558 C0.129887152,12.0857236 0.0808339122,12.4279385 0.0808339122,12.4681204 C0.0808339122,12.4949083 0.0623495582,12.6944875 0.0253808501,13.066858 C0.00846028338,13.2721374 0,13.4614249 0,13.6347206 C0,13.7721594 0,14.1716897 0,14.4462792 C0,14.7208688 0.0450322043,15.5021857 0.0460240844,15.5097297 C0.0663173108,15.6640737 0.0637582405,15.6770513 0.0808339122,15.8040682 C0.106552469,15.9953748 0.143767641,16.2653357 0.177107215,16.4521268 C0.190549007,16.5274369 0.200538936,16.5813865 0.232212425,16.7214461 C0.243036425,16.7693096 0.267129597,16.9139395 0.278607607,16.97747 C0.316848577,17.1891329 0.358635391,17.3288268 0.376756668,17.4133076 C0.416233063,17.5973453 0.452982269,17.6968187 0.52097106,17.9346592 C0.588959851,18.1724997 0.612004172,18.2442975 0.660147429,18.4046741 C0.708290686,18.5650507 0.825147521,18.9917912 0.883560896,19.1148633 C0.941974272,19.2379355 0.941974272,19.2379355 0.969358564,19.302929 C0.985385431,19.3409669 1.00290542,19.3876829 1.03478682,19.4649695 C1.04652359,19.4934216 1.06645622,19.545758 1.0945847,19.6219786 C1.16816962,19.7752831 1.22393429,19.893716 1.26187873,19.9772772 C1.31879538,20.1026191 1.41542244,20.35509 1.64585931,20.7763494 C1.87629619,21.1976088 1.71914274,20.8976445 1.98325713,21.3138169 C2.12472387,21.53673 2.18009446,21.6751178 2.29599546,21.8344999 C2.41189645,21.993882 2.60979645,22.3536161 2.79066892,22.5620372 C2.97154139,22.7704583 3.40702112,23.2914859 3.55871772,23.4310049 C3.71041432,23.5705238 3.89501542,23.760767 4.02052493,23.8606236 C4.19322376,23.9980246 4.3615141,24.1542654 4.4344554,24.2208055 C4.63491338,24.4036715 4.65206441,24.4211944 4.82620192,24.546048 C5.00033942,24.6709016 5.10387198,24.7895605 5.42739196,25.0305978 C5.75091194,25.271635 5.97903807,25.4649678 6.21327051,25.6032053 C6.42302013,25.7269937 6.73776911,25.9223183 6.89074734,26.0286171 C7.10429013,26.1769998 7.24209663,26.253108 7.34671416,26.3026882 C7.4568809,26.3548983 7.67024992,26.4937784 7.75649354,26.5405738 C7.9246366,26.6318075 8.3228843,26.8233797 8.46826113,26.8876884 C8.61363795,26.9519971 8.93871819,27.086033 9.15842207,27.1814685 C9.41915385,27.2947259 9.84445297,27.4562442 10.1528905,27.5589527 C10.4613279,27.6616613 11.287324,27.8221074 11.7855241,27.9252059 C12.0161483,27.9729317 12.1146025,28.0068725 12.3669429,28.0408654 C12.3975428,28.0449875 12.5322889,28.062631 12.6248911,28.0784741 C12.6854206,28.0888299 12.8889776,28.1076911 13.1156297,28.1076911 C13.3422817,28.1076911 13.3319965,28.1057633 13.3834243,28.1076911 C13.8022832,28.123392 14.2706092,28.0991614 14.6701829,28.1029549 C15.4153777,28.1100297 16.0687652,28.0648381 16.2810994,28.0408654 C17.4138156,27.9129807 18.0320062,27.918388 18.9727532,27.6753852 C19.9135002,27.4323824 20.3269315,27.1626989 20.7953739,26.8195103 C21.0196739,26.6551843 21.6783837,26.259217 21.7052292,25.9530042 C21.7566972,25.3659339 20.8127059,24.8490567 20.4731069,24.7895605 C19.8912978,24.6876301 19.1201137,25.3774094 18.229085,25.6032053 C17.3380562,25.8290012 16.6834035,25.9696941 15.8210124,26.0286171 C14.9284609,26.0896007 14.1393975,26.0286171 13.4421827,26.0286171 C12.7449678,26.0286171 12.2749586,25.9662622 11.5376942,25.7984804 C11.2616447,25.7356589 10.9635063,25.6457909 10.673409,25.5377858 C10.3974888,25.4350589 10.1288431,25.3159244 9.89339677,25.1880482 C9.41040651,24.9257252 9.12655515,24.8274349 8.46826113,24.3835845 C7.80996711,23.9397342 7.53493034,23.6805387 7.19190569,23.3802406 C6.12817375,22.4490056 6.16835006,22.4063317 5.72272347,21.9669579 C5.49172807,21.7392037 5.31056754,21.5345709 5.24848855,21.4646421 C5.18640957,21.3947133 5.03290963,21.2163905 4.85191714,20.9306505 C4.47613268,20.3373848 4.17611351,19.7110444 4.02052493,19.3601074 C3.83548863,18.9427496 3.61950016,18.207768 3.52452517,17.9145733 C3.42955017,17.6213785 3.37090051,17.3773301 3.33294392,17.2069541 C3.29498732,17.036578 3.25222845,16.8314282 3.22231984,16.6528791 C3.21629686,16.6169229 3.19912027,16.5270835 3.17079008,16.3833609 C3.15738046,16.3041704 3.14592231,16.2321307 3.13641564,16.1672418 C3.13128065,16.1321924 3.12274529,16.0673819 3.11080956,15.9728106 L3.07492998,15.6130908 C3.05370586,15.3155845 3.03550247,15.0655131 3.0203198,14.8628767 C2.99754579,14.5589221 3.00026107,14.0745965 3.00026107,13.9912409 C3.00026107,13.9078852 3.00240024,13.5453468 3.00422333,13.4985131 C3.0078498,13.4053522 3.01338074,13.2822653 3.0203198,13.1627277 C3.02970056,13.0011272 3.04216535,12.8460238 3.04723284,12.7799316 C3.0555729,12.6711573 3.06323504,12.592646 3.07492998,12.4898245 C3.07769044,12.4655546 3.08449185,12.4209312 3.09170039,12.3691847 C3.0988523,12.3178447 3.10640496,12.259493 3.11080956,12.2070506 C3.11230789,12.1892111 3.11562734,12.1587714 3.12039892,12.1198085 C3.12276848,12.1004595 3.12549616,12.0790086 3.12853675,12.055955 C3.13152361,12.0333089 3.13481242,12.0091163 3.13836036,11.9838505 C3.14334886,11.948326 3.14884963,11.9106798 3.1547436,11.8722275 C3.15700937,11.8574456 3.15933325,11.8425446 3.16170846,11.8275992 C3.16444707,11.8103672 3.16725394,11.7930763 3.17011869,11.7758408 C3.17232475,11.7625683 3.17456514,11.7493288 3.17683512,11.7361744 C3.17820643,11.7282278 3.18085089,11.7134541 3.18359699,11.6982548 C3.1873818,11.6773064 3.19135968,11.6555495 3.19246351,11.6497438 C3.19613148,11.6304518 3.19984463,11.6116408 3.20358559,11.5935026 C3.20516301,11.5858544 3.20803474,11.5731822 3.2115503,11.5581339 C3.21483907,11.5440564 3.21869128,11.5278996 3.22257439,11.5118312 C3.22473391,11.5028951 3.24013891,11.4405524 3.24265686,11.4313274 C3.24770986,11.4128149 3.25273043,11.3951156 3.25772013,11.3781045 C3.26179882,11.3641993 3.26585689,11.3507539 3.26989519,11.3377 C3.27699247,11.3147579 3.28402868,11.2930251 3.29100843,11.2721308 C3.30048888,11.2437506 3.30986517,11.2169174 3.31914889,11.1907021 C3.33612815,11.1427561 3.35279776,11.0968767 3.3692286,11.0473791 C3.39586404,10.9671403 3.43379564,10.8633754 3.47318794,10.76337 C3.51889827,10.6473251 3.56657544,10.5363423 3.60085194,10.4730547 C3.66466727,10.355227 3.73981153,10.1845041 3.77827789,10.1075198 C3.8039919,10.0560573 4.0502302,9.59744679 4.12029174,9.45777979 C4.30816845,9.0832494 4.62732853,8.55232061 4.80486059,8.30411107 C4.99330145,8.04064982 4.99330145,8.00546247 5.10387198,7.82747774 C5.21444251,7.64949301 5.35782264,7.47693159 5.55910125,7.19925454 C5.76037986,6.9215775 6.07830314,6.5804261 6.21327051,6.43668054 C6.34135319,6.30026746 6.60005539,6.01628712 6.9893771,5.58473952 C7.35977409,5.19277091 7.71474003,4.86559282 8.05427492,4.60320527 C8.56357725,4.20962394 8.95645525,3.90264536 9.45308393,3.63709953 C9.79727804,3.45306 10.0929352,3.27029031 10.5023864,3.11157799 C10.6574603,3.05146795 10.9387232,2.95895095 11.1352614,2.90698049 C11.8507316,2.71778915 12.8313085,2.60712843 13.8510435,2.60320527 C14.8707785,2.5992821 15.9538079,2.65904468 16.4478432,2.73323823 C16.9418785,2.80743178 18.3011663,3.0186631 19.5268345,3.70704128 C20.7525027,4.39541946 20.6123274,4.40899952 21.2326357,4.80583066 C21.6461745,5.07038475 22.062751,5.40480456 22.4823651,5.8090901 C22.8775863,6.19603076 23.2428987,6.60203875 23.5783023,7.02711406 C24.0814078,7.66472703 24.2410009,8.00596194 24.5796239,8.63009419 C24.8276616,9.0872644 24.9263391,9.27967855 25.224095,9.93285839 C25.3326312,10.1709517 25.427266,10.3983493 25.5095823,10.6161666 C25.6530907,10.9959044 25.7591586,11.346524 25.8361735,11.6739352 C25.9737006,12.2585999 26.0002611,13.1417686 26.0002611,13.6120721 C26.0002611,14.0487809 26.0185837,14.7648459 25.857726,15.6958473 C25.7581415,16.2722154 25.6905616,16.7453293 25.5311903,17.2069541 C25.4331309,17.4909868 25.2830913,17.8158631 25.1645349,17.9634586 C24.876067,18.3225833 23.559482,18.7154026 22.937786,18.2491809 C22.523322,17.9383664 22.1600324,17.2063037 21.8479173,16.0529928 L21.8479173,8.28679902 C21.8479173,7.73451427 21.4002021,7.28679902 20.8479173,7.28679902 L19.7580736,7.28679902 C19.2057888,7.28679902 18.7580736,7.73451427 18.7580736,8.28679902 L18.7580736,8.83172089 L18.7580736,8.83172089 C17.5276048,7.55567923 16.1376309,6.91765839 14.5881517,6.91765839 C12.7925788,6.91765839 11.2977871,7.58302298 10.1037767,8.91375214 C8.90976628,10.2444813 8.31276107,11.9078928 8.31276107,13.9039865 C8.31276107,15.9365386 8.90976628,17.6318511 10.1037767,18.989924 C11.3069017,20.3206532 12.8290371,20.9860178 14.6701829,20.9860178 Z M15.1350267,18.2379709 C14.0686204,18.2379709 13.1845059,17.8323719 12.4826829,17.021174 C11.7990892,16.2190907 11.4572923,15.1800282 11.4572923,13.9039865 C11.4572923,12.7099761 11.8082038,11.7073719 12.5100267,10.896174 C13.2209642,10.0940907 14.1050788,9.69304902 15.1623704,9.69304902 C16.2834642,9.69304902 17.1949225,10.0895334 17.8967454,10.8825021 C18.5985684,11.6937001 18.9494798,12.723648 18.9494798,13.9723459 C18.9494798,15.2210438 18.5985684,16.2509917 17.8967454,17.0621896 C17.1949225,17.8460438 16.2743496,18.2379709 15.1350267,18.2379709 Z" id="a-copy"></path>
            </g>
        </g>
    </g>
</svg>