<?xml version="1.0" encoding="UTF-8"?>
<svg width="33px" height="32px" viewBox="0 0 33 32" version="1.1" xmlns="http://www.w3.org/2000/svg" xmlns:xlink="http://www.w3.org/1999/xlink">
    <title>github</title>
    <g id="Website" stroke="none" stroke-width="1" fill="none" fill-rule="evenodd">
        <g id="Wireframe" transform="translate(-374.000000, -529.000000)" fill="#44566C" fill-rule="nonzero">
            <g id="Banner" transform="translate(0.000000, 100.000000)">
                <g id="Banner-Context" transform="translate(250.000000, 250.000000)">
                    <g id="Social-Icons" transform="translate(0.000000, 179.000000)">
                        <g id="github" transform="translate(124.006000, 0.000000)">
                            <path d="M16,0 C7.164,0 0,7.163 0,16 C0,23.069 4.585,29.067 10.942,31.182 C11.742,31.33 12.036,30.835 12.036,30.412 C12.036,30.031 12.021,28.77 12.014,27.433 C7.562,28.401 6.623,25.545 6.623,25.545 C5.895,23.696 4.847,23.204 4.847,23.204 C3.395,22.211 4.957,22.231 4.957,22.231 C6.563,22.344 7.409,23.88 7.409,23.88 C8.836,26.326 11.152,25.619 12.065,25.21 C12.208,24.176 12.623,23.47 13.081,23.07 C9.527,22.666 5.791,21.293 5.791,15.163 C5.791,13.416 6.416,11.989 7.44,10.868 C7.274,10.465 6.726,8.838 7.595,6.634 C7.595,6.634 8.939,6.204 11.996,8.274 C13.272,7.919 14.641,7.742 16.001,7.735 C17.36,7.741 18.73,7.919 20.009,8.274 C23.063,6.204 24.404,6.634 24.404,6.634 C25.275,8.838 24.727,10.465 24.561,10.868 C25.587,11.988 26.208,13.416 26.208,15.163 C26.208,21.308 22.465,22.661 18.902,23.058 C19.476,23.555 19.987,24.528 19.987,26.021 C19.987,28.162 19.968,29.885 19.968,30.412 C19.968,30.838 20.256,31.337 21.067,31.18 C27.421,29.062 32,23.067 32,16 C32,7.163 24.836,0 16,0 Z" id="Path"></path>
                        </g>
                    </g>
                </g>
            </g>
        </g>
    </g>
</svg>