<?xml version="1.0" encoding="UTF-8"?>
<svg width="22px" height="22px" viewBox="0 0 22 22" version="1.1" xmlns="http://www.w3.org/2000/svg" xmlns:xlink="http://www.w3.org/1999/xlink">
    <title>github</title>
    <g id="Website" stroke="none" stroke-width="1" fill="none" fill-rule="evenodd">
        <g id="Wireframe" transform="translate(-993.000000, -4074.000000)" fill="#8996A6" fill-rule="nonzero">
            <g id="Contact" transform="translate(0.000000, 3625.000000)">
                <g id="Contact-Info" transform="translate(890.000000, 139.000000)">
                    <g id="Social-Details" transform="translate(0.000000, 267.000000)">
                        <g id="Social-Icons" transform="translate(16.000000, 43.000000)">
                            <g id="github" transform="translate(87.000000, 0.000000)">
                                <path d="M11,0 C4.92525,0 0,5.04928384 0,11.2785902 C0,16.2616123 3.1521875,20.4896738 7.522625,21.9805624 C8.072625,22.0848894 8.27475,21.735958 8.27475,21.4377803 C8.27475,21.1692088 8.2644375,20.280315 8.259625,19.3378478 C5.198875,20.0202025 4.5533125,18.0069741 4.5533125,18.0069741 C4.0528125,16.7035921 3.3323125,16.3567754 3.3323125,16.3567754 C2.3340625,15.6567979 3.4079375,15.6708961 3.4079375,15.6708961 C4.5120625,15.7505512 5.0936875,16.8332958 5.0936875,16.8332958 C6.07475,18.5575103 7.667,18.0591376 8.2946875,17.7708286 C8.393,17.0419498 8.6783125,16.544282 8.9931875,16.2623172 C6.5498125,15.9775328 3.9813125,15.0096888 3.9813125,10.6885789 C3.9813125,9.45709786 4.411,8.4511886 5.115,7.66098238 C5.000875,7.37690289 4.624125,6.23001125 5.2215625,4.67638545 C5.2215625,4.67638545 6.1455625,4.37327334 8.24725,5.83244095 C9.1245,5.58219723 10.0656875,5.45742782 11.0006875,5.45249344 C11.935,5.45672291 12.876875,5.58219723 13.7561875,5.83244095 C15.8558125,4.37327334 16.77775,4.67638545 16.77775,4.67638545 C17.3765625,6.23001125 16.9998125,7.37690289 16.8856875,7.66098238 C17.5910625,8.45048369 18.018,9.45709786 18.018,10.6885789 C18.018,15.0202625 15.4446875,15.9740082 12.995125,16.2538583 C13.38975,16.6041995 13.7410625,17.2900787 13.7410625,18.3425122 C13.7410625,19.8517285 13.728,21.0662917 13.728,21.4377803 C13.728,21.7380727 13.926,22.0898238 14.4835625,21.9791526 C18.8519375,20.4861492 22,16.2602025 22,11.2785902 C22,5.04928384 17.07475,0 11,0 Z" id="Path"></path>
                            </g>
                        </g>
                    </g>
                </g>
            </g>
        </g>
    </g>
</svg>