<?xml version="1.0" encoding="UTF-8"?>
<svg width="24px" height="24px" viewBox="0 0 24 24" version="1.1" xmlns="http://www.w3.org/2000/svg" xmlns:xlink="http://www.w3.org/1999/xlink">
    <title>Phone Light Grey</title>
    <g id="Icons" stroke="none" stroke-width="1" fill="none" fill-rule="evenodd">
        <g id="Artboard" transform="translate(-282.000000, -585.000000)" fill="#8996A6">
            <g id="Phone-Light-Grey" transform="translate(282.000000, 585.000000)">
                <path d="M4.21844099,0.381083292 C5.21885607,-0.0609810616 5.7516038,-0.189055028 6.92147632,0.381083292 C7.70139133,0.761175505 9.03835127,2.36497782 10.9323561,5.19249023 C11.26671,6.15342255 11.26671,6.96972026 10.9323561,7.64138336 C10.4308253,8.64887801 8.8472777,10.1397114 8.89996586,10.7070476 C8.95265401,11.2743839 12.11844,15.5658993 13.1661009,15.1356536 C14.2137619,14.7054078 15.2503523,13.374374 15.9229413,13.0176642 C16.5955303,12.6609543 17.3785974,12.7801432 17.8502285,12.7935712 C18.2236032,12.8042017 19.2967,13.703706 20.4078592,14.6055173 L20.759245,14.8893424 C20.9347988,15.0302592 21.1095652,15.168907 21.2809395,15.3017958 C22.6519339,16.3649058 23.8035257,17.2054722 23.96451,17.8560226 C24.1254943,18.5065731 23.705623,19.2786827 23.3716114,19.7883679 C23.0375998,20.2980531 21.1333881,22.5622008 19.9790616,23.220366 C18.8247352,23.8785311 16.3294982,24.1532559 15.1458722,23.9156988 C13.9622462,23.6781416 11.1778284,22.3855014 9.93144517,21.4763094 C9.36771522,21.0650886 7.715133,19.8910408 6.41697315,18.6176375 C4.873001,17.1031097 3.46344087,15.295901 3.20135333,14.9338862 C2.94818799,14.5841955 1.82743164,12.8591146 1.03040504,10.9352473 C0.233378434,9.01138005 0.133880296,7.84816739 0.0985458689,7.64138336 C0.0177135218,7.16833653 -0.190640101,5.19249023 0.439707037,4.25204964 C1.07005417,3.31160905 3.21802591,0.823147646 4.21844099,0.381083292 Z M2.51396064,6.14223432 C2.27019937,6.96745244 2.4739949,7.8502699 3.12196486,9.59689911 C3.76993482,11.3435283 3.94888972,12.1304019 5.19565144,13.7933978 C6.44241316,15.4563937 7.96946013,16.9839563 9.11304134,17.9376466 C10.2566226,18.8913369 11.0834697,19.2841989 12.6610239,20.1684129 C14.238578,21.0526269 15.9724513,21.5151202 16.653631,21.5898867 C17.3348106,21.6646532 17.8225159,21.5898867 18.6899341,21.1483301 C19.5573523,20.7067736 21.7241638,19.3047655 21.3934718,18.7274552 C21.0627798,18.1501448 18.3031029,14.9418239 17.3348106,15.2898663 C16.3665183,15.6379087 14.3599981,17.9376466 13.0481777,17.5734338 C11.7363573,17.209221 9.4750303,15.1866407 8.64910199,14.1906441 C6.67514733,11.8102292 6.36039922,10.1524671 6.36039922,9.87582024 C6.36039922,9.28722098 8.22834508,7.92372712 8.64910199,6.87055146 C9.06985889,5.8173758 6.72244372,3.12217331 5.64660361,2.68756953 C4.57076351,2.25296576 2.75772191,5.3170162 2.51396064,6.14223432 Z" id="Combined-Shape"></path>
            </g>
        </g>
    </g>
</svg>