<?xml version="1.0" encoding="UTF-8"?>
<svg width="31px" height="30px" viewBox="0 0 31 30" version="1.1" xmlns="http://www.w3.org/2000/svg" xmlns:xlink="http://www.w3.org/1999/xlink">
    <title>Phone Dark</title>
    <g id="Icons" stroke="none" stroke-width="1" fill="none" fill-rule="evenodd">
        <g id="Artboard" transform="translate(-308.000000, -547.000000)" fill="#44566C">
            <g id="Phone-Dark" transform="translate(308.348389, 547.498338)">
                <path d="M5.22052372,0.467512028 C6.45858552,-0.0748114135 7.11788647,-0.231932234 8.56566,0.467512028 C9.53084236,0.933808202 11.1853946,2.90134886 13.5293168,6.370134 C13.9430957,7.54900336 13.9430957,8.55043534 13.5293168,9.37442995 C12.9086483,10.6104219 10.9489319,12.4393726 11.014136,13.1353792 C11.0793401,13.8313859 14.9971526,19.0962063 16.2936835,18.5683818 C17.5902143,18.0405574 18.8730448,16.4076486 19.705406,15.9700378 C20.5377673,15.532427 21.5068505,15.6786477 22.0905168,15.6951211 C22.5660967,15.7085439 23.9589965,16.8771372 25.376432,18.0150394 L25.7629429,18.3237244 C25.9558317,18.4767955 26.1476676,18.6272913 26.3361867,18.7722047 C28.0328582,20.0764254 29.4580084,21.1076302 29.6572343,21.9057238 C29.8564601,22.7038174 29.3368492,23.6510396 28.9234938,24.2763201 C28.5101383,24.9016006 26.1535847,27.6792514 24.7250501,28.4866868 C23.2965156,29.2941221 20.2085398,29.6311538 18.7437457,29.3397193 C17.2789516,29.0482848 13.8331005,27.462477 12.2906413,26.3470826 C11.5929984,25.8425979 9.54784834,24.402279 7.94131305,22.8400711 C6.03057323,20.9820521 4.28617474,18.764973 3.96182879,18.3208542 C3.64852451,17.8918544 2.26153459,15.7755295 1.27517582,13.415334 C0.288817043,11.0551385 0.165683308,9.62811208 0.121955255,9.37442995 C0.0219213356,8.79409729 -0.235926299,6.370134 0.544158616,5.21640385 C1.32424353,4.06267369 3.98246192,1.00983547 5.22052372,0.467512028 Z M3.11114726,7.53527767 C2.80948096,8.54765318 3.06168774,9.63069144 3.86358175,11.7734518 C4.66547575,13.9162121 4.88694104,14.8815467 6.42986866,16.9217059 C7.97279628,18.961865 9.86259039,20.835875 11.2778272,22.0058598 C12.6930639,23.1758447 13.716327,23.6578069 15.6686263,24.7425584 C17.6209255,25.82731 19.7666771,26.3946955 20.6096697,26.4864189 C21.4526623,26.5781423 22.056221,26.4864189 23.1296928,25.9447184 C24.2031646,25.4030179 26.8846981,23.683038 26.4754508,22.9747951 C26.0662036,22.2665521 22.6509706,18.3305921 21.4526623,18.7575697 C20.254354,19.1845473 17.7711887,22.0058598 16.1477478,21.5590445 C14.5243069,21.1122292 11.7258059,18.6309327 10.7036799,17.4090466 C8.26081602,14.4887596 7.87130009,12.4550212 7.87130009,12.1156315 C7.87130009,11.3935394 10.182973,9.72080857 10.7036799,8.42877531 C11.2243868,7.13674205 8.31934758,3.83027439 6.98794368,3.29710356 C5.65653978,2.76393274 3.41281356,6.52290215 3.11114726,7.53527767 Z" id="Combined-Shape"></path>
            </g>
        </g>
    </g>
</svg>