<?xml version="1.0" encoding="UTF-8"?>
<svg width="33px" height="26px" viewBox="0 0 33 26" version="1.1" xmlns="http://www.w3.org/2000/svg" xmlns:xlink="http://www.w3.org/1999/xlink">
    <title>twitter</title>
    <g id="Website" stroke="none" stroke-width="1" fill="none" fill-rule="evenodd">
        <g id="Wireframe" transform="translate(-250.000000, -532.000000)" fill="#44566C" fill-rule="nonzero">
            <g id="Banner" transform="translate(0.000000, 100.000000)">
                <g id="Banner-Context" transform="translate(250.000000, 250.000000)">
                    <g id="Social-Icons" transform="translate(0.000000, 179.000000)">
                        <g id="twitter" transform="translate(0.000000, 3.000000)">
                            <path d="M32.006,3.075 C30.831,3.6 29.562,3.95 28.237,4.106 C29.593,3.293 30.631,2.006 31.124,0.475 C29.855,1.225 28.449,1.775 26.955,2.069 C25.755,0.794 24.049,0 22.161,0 C18.536,0 15.598,2.938 15.598,6.563 C15.598,7.075 15.654,7.575 15.767,8.057 C10.311,7.782 5.473,5.169 2.236,1.195 C1.673,2.164 1.349,3.295 1.349,4.495 C1.349,6.77 2.505,8.782 4.268,9.958 C3.193,9.927 2.181,9.627 1.293,9.139 C1.293,9.164 1.293,9.195 1.293,9.22 C1.293,12.401 3.556,15.058 6.562,15.657 C6.012,15.807 5.431,15.888 4.831,15.888 C4.406,15.888 4,15.844 3.594,15.769 C4.432,18.375 6.857,20.275 9.725,20.332 C7.475,22.094 4.65,23.145 1.569,23.145 C1.038,23.145 0.519,23.114 0,23.051 C2.913,24.92 6.362,26.001 10.069,26.001 C22.144,26.001 28.75,15.995 28.75,7.32 C28.75,7.033 28.744,6.751 28.731,6.47 C30.012,5.551 31.125,4.395 32.006,3.076 L32.006,3.075 Z" id="Path"></path>
                        </g>
                    </g>
                </g>
            </g>
        </g>
    </g>
</svg>