<?xml version="1.0" encoding="UTF-8"?>
<svg width="22px" height="18px" viewBox="0 0 22 18" version="1.1" xmlns="http://www.w3.org/2000/svg" xmlns:xlink="http://www.w3.org/1999/xlink">
    <title>twitter</title>
    <g id="Website" stroke="none" stroke-width="1" fill="none" fill-rule="evenodd">
        <g id="Wireframe" transform="translate(-906.000000, -4076.000000)" fill="#8996A6" fill-rule="nonzero">
            <g id="Contact" transform="translate(0.000000, 3625.000000)">
                <g id="Contact-Info" transform="translate(890.000000, 139.000000)">
                    <g id="Social-Details" transform="translate(0.000000, 267.000000)">
                        <g id="Social-Icons" transform="translate(16.000000, 43.000000)">
                            <g id="twitter" transform="translate(0.000000, 2.000000)">
                                <path d="M22,2.12876428 C21.1923389,2.49221184 20.320065,2.73451021 19.4092983,2.84250606 C20.3413735,2.27968155 21.0548647,1.38871582 21.3937387,0.328833506 C20.5214647,0.848044306 19.5550209,1.22879889 18.5280885,1.43232953 C17.7032431,0.549671166 16.530588,0 15.2328313,0 C12.741111,0 10.7216147,2.03392177 10.7216147,4.54344064 C10.7216147,4.89788854 10.7601075,5.24402908 10.8377804,5.57770855 C7.0874836,5.38733126 3.76198213,3.57840083 1.53696182,0.827275874 C1.14997188,1.49809623 0.927263638,2.28106611 0.927263638,3.11180339 C0.927263638,4.68674282 1.72186465,6.07961232 2.93369993,6.89373486 C2.19477598,6.87227414 1.49915641,6.66458982 0.888770855,6.32675666 C0.888770855,6.34406369 0.888770855,6.3655244 0.888770855,6.38283143 C0.888770855,8.5849775 2.4442917,10.4243683 4.51052928,10.8390447 C4.13247516,10.9428868 3.73311254,10.9989616 3.32068987,10.9989616 C3.02855715,10.9989616 2.74948447,10.9685012 2.4704118,10.9165801 C3.04642879,12.7206646 4.71330376,14.0359986 6.68468412,14.0754586 C5.13809911,15.2952579 3.1962757,16.0228453 1.07848528,16.0228453 C0.71349122,16.0228453 0.35674561,16.0013846 0,15.9577709 C2.00231207,17.2516442 4.37305505,18 6.92113979,18 C15.221146,18 19.7619196,11.0730357 19.7619196,5.0674974 C19.7619196,4.86881274 19.7577954,4.67358948 19.7488596,4.4790585 C20.629382,3.8428522 21.394426,3.04257529 22,2.12945656 L22,2.12876428 Z" id="Path"></path>
                            </g>
                        </g>
                    </g>
                </g>
            </g>
        </g>
    </g>
</svg>